<mxfile host="www.draw.io" modified="2024-03-10T17:50:40.044Z" agent="Mozilla/5.0 (Macintosh; Intel Mac OS X 10_15_7) AppleWebKit/537.36 (KHTML, like Gecko) Chrome/122.0.0.0 Safari/537.36" etag="TMAhUs0d44W02ozzV_Is" version="24.0.4" type="device">
  <diagram name="Сторінка-1" id="6a6qvD1-HpwonhdaGCRA">
    <mxGraphModel dx="3580" dy="1867" grid="1" gridSize="10" guides="1" tooltips="1" connect="1" arrows="1" fold="1" page="0" pageScale="1" pageWidth="827" pageHeight="1169" math="0" shadow="0">
      <root>
        <mxCell id="0" />
        <mxCell id="1" parent="0" />
        <mxCell id="97yGeqRNfgGxLknGt3WS-2" value="" style="strokeWidth=1;shadow=0;dashed=0;align=center;html=1;shape=mxgraph.mockup.containers.browserWindow;rSize=0;strokeColor=#666666;strokeColor2=#008cff;strokeColor3=#c4c4c4;mainText=,;recursiveResize=0;" parent="1" vertex="1">
          <mxGeometry x="-260" y="30" width="1010" height="580" as="geometry" />
        </mxCell>
        <mxCell id="97yGeqRNfgGxLknGt3WS-3" value="Page 1" style="strokeWidth=1;shadow=0;dashed=0;align=center;html=1;shape=mxgraph.mockup.containers.anchor;fontSize=17;fontColor=#666666;align=left;whiteSpace=wrap;" parent="97yGeqRNfgGxLknGt3WS-2" vertex="1">
          <mxGeometry x="60" y="12" width="110" height="26" as="geometry" />
        </mxCell>
        <mxCell id="97yGeqRNfgGxLknGt3WS-4" value="https://www.coolname" style="strokeWidth=1;shadow=0;dashed=0;align=center;html=1;shape=mxgraph.mockup.containers.anchor;rSize=0;fontSize=17;fontColor=#666666;align=left;" parent="97yGeqRNfgGxLknGt3WS-2" vertex="1">
          <mxGeometry x="130" y="60" width="250" height="26" as="geometry" />
        </mxCell>
        <mxCell id="97yGeqRNfgGxLknGt3WS-5" value="Почати гру" style="strokeWidth=1;shadow=0;dashed=0;align=center;html=1;shape=mxgraph.mockup.buttons.button;mainText=;buttonStyle=round;fontSize=17;fontStyle=1;whiteSpace=wrap;fillColor=#bac8d3;strokeColor=#23445d;" parent="97yGeqRNfgGxLknGt3WS-2" vertex="1">
          <mxGeometry x="410" y="290" width="190" height="70" as="geometry" />
        </mxCell>
        <mxCell id="97yGeqRNfgGxLknGt3WS-10" value="Інструкція" style="strokeWidth=1;shadow=0;dashed=0;align=center;html=1;shape=mxgraph.mockup.buttons.button;mainText=;buttonStyle=round;fontSize=17;fontStyle=1;whiteSpace=wrap;fillColor=#bac8d3;strokeColor=#23445d;" parent="97yGeqRNfgGxLknGt3WS-2" vertex="1">
          <mxGeometry x="410" y="380" width="190" height="40" as="geometry" />
        </mxCell>
        <mxCell id="97yGeqRNfgGxLknGt3WS-11" value="&lt;font style=&quot;font-size: 39px;&quot;&gt;Цифрова агонія&lt;/font&gt;" style="text;html=1;align=center;verticalAlign=middle;whiteSpace=wrap;rounded=0;" parent="97yGeqRNfgGxLknGt3WS-2" vertex="1">
          <mxGeometry x="280" y="140" width="450" height="70" as="geometry" />
        </mxCell>
        <mxCell id="97yGeqRNfgGxLknGt3WS-12" value="" style="strokeWidth=1;shadow=0;dashed=0;align=center;html=1;shape=mxgraph.mockup.containers.browserWindow;rSize=0;strokeColor=#666666;strokeColor2=#008cff;strokeColor3=#c4c4c4;mainText=,;recursiveResize=0;" parent="1" vertex="1">
          <mxGeometry x="-260" y="640" width="1010" height="580" as="geometry" />
        </mxCell>
        <mxCell id="97yGeqRNfgGxLknGt3WS-13" value="Page 1" style="strokeWidth=1;shadow=0;dashed=0;align=center;html=1;shape=mxgraph.mockup.containers.anchor;fontSize=17;fontColor=#666666;align=left;whiteSpace=wrap;" parent="97yGeqRNfgGxLknGt3WS-12" vertex="1">
          <mxGeometry x="60" y="12" width="110" height="26" as="geometry" />
        </mxCell>
        <mxCell id="97yGeqRNfgGxLknGt3WS-14" value="https://www.coolname" style="strokeWidth=1;shadow=0;dashed=0;align=center;html=1;shape=mxgraph.mockup.containers.anchor;rSize=0;fontSize=17;fontColor=#666666;align=left;" parent="97yGeqRNfgGxLknGt3WS-12" vertex="1">
          <mxGeometry x="130" y="60" width="250" height="26" as="geometry" />
        </mxCell>
        <mxCell id="97yGeqRNfgGxLknGt3WS-19" value="Персонаж" style="shape=umlActor;verticalLabelPosition=bottom;verticalAlign=top;html=1;outlineConnect=0;" parent="97yGeqRNfgGxLknGt3WS-12" vertex="1">
          <mxGeometry x="125" y="300" width="80" height="150" as="geometry" />
        </mxCell>
        <mxCell id="97yGeqRNfgGxLknGt3WS-21" value="Вороги" style="shape=umlActor;verticalLabelPosition=bottom;verticalAlign=top;html=1;outlineConnect=0;" parent="97yGeqRNfgGxLknGt3WS-12" vertex="1">
          <mxGeometry x="780" y="300" width="80" height="150" as="geometry" />
        </mxCell>
        <mxCell id="97yGeqRNfgGxLknGt3WS-25" value="" style="verticalLabelPosition=bottom;shadow=0;dashed=0;align=center;html=1;verticalAlign=top;strokeWidth=1;shape=mxgraph.mockup.misc.help_icon;" parent="97yGeqRNfgGxLknGt3WS-12" vertex="1">
          <mxGeometry x="970" y="116.5" width="32" height="32" as="geometry" />
        </mxCell>
        <mxCell id="97yGeqRNfgGxLknGt3WS-26" value="" style="strokeColor=#999999;verticalLabelPosition=bottom;shadow=0;dashed=0;verticalAlign=top;strokeWidth=2;html=1;shape=mxgraph.mockup.misc.volumeIcon;" parent="97yGeqRNfgGxLknGt3WS-12" vertex="1">
          <mxGeometry x="935" y="120" width="25" height="25" as="geometry" />
        </mxCell>
        <mxCell id="97yGeqRNfgGxLknGt3WS-28" value="" style="verticalLabelPosition=bottom;shadow=0;dashed=0;align=center;html=1;verticalAlign=top;strokeWidth=1;shape=mxgraph.mockup.misc.progressBar;fillColor=#CC0000;strokeColor=none;fillColor2=#99ddff;barPos=0;" parent="97yGeqRNfgGxLknGt3WS-12" vertex="1">
          <mxGeometry x="70" y="120" width="210" height="20" as="geometry" />
        </mxCell>
        <mxCell id="97yGeqRNfgGxLknGt3WS-41" value="&lt;font style=&quot;font-size: 16px;&quot;&gt;Проходження гри&lt;/font&gt;" style="text;html=1;align=center;verticalAlign=middle;whiteSpace=wrap;rounded=0;" parent="97yGeqRNfgGxLknGt3WS-12" vertex="1">
          <mxGeometry x="410" y="116.5" width="190" height="53.5" as="geometry" />
        </mxCell>
        <mxCell id="DN3tmchyXIPDvixoA0uq-4" value="" style="verticalLabelPosition=bottom;verticalAlign=top;html=1;shape=mxgraph.basic.heart;fillColor=#B50B27;strokeColor=#B50B27;" parent="97yGeqRNfgGxLknGt3WS-12" vertex="1">
          <mxGeometry x="30" y="114" width="31" height="31" as="geometry" />
        </mxCell>
        <mxCell id="97yGeqRNfgGxLknGt3WS-20" value="" style="endArrow=none;html=1;rounded=0;exitX=-0.001;exitY=0.773;exitDx=0;exitDy=0;exitPerimeter=0;entryX=1.002;entryY=0.768;entryDx=0;entryDy=0;entryPerimeter=0;" parent="1" source="97yGeqRNfgGxLknGt3WS-12" target="97yGeqRNfgGxLknGt3WS-12" edge="1">
          <mxGeometry width="50" height="50" relative="1" as="geometry">
            <mxPoint x="250" y="940" as="sourcePoint" />
            <mxPoint x="300" y="890" as="targetPoint" />
          </mxGeometry>
        </mxCell>
        <mxCell id="97yGeqRNfgGxLknGt3WS-29" value="" style="strokeWidth=1;shadow=0;dashed=0;align=center;html=1;shape=mxgraph.mockup.containers.browserWindow;rSize=0;strokeColor=#666666;strokeColor2=#008cff;strokeColor3=#c4c4c4;mainText=,;recursiveResize=0;" parent="1" vertex="1">
          <mxGeometry x="-260" y="1270" width="1010" height="580" as="geometry" />
        </mxCell>
        <mxCell id="97yGeqRNfgGxLknGt3WS-30" value="Page 1" style="strokeWidth=1;shadow=0;dashed=0;align=center;html=1;shape=mxgraph.mockup.containers.anchor;fontSize=17;fontColor=#666666;align=left;whiteSpace=wrap;" parent="97yGeqRNfgGxLknGt3WS-29" vertex="1">
          <mxGeometry x="60" y="12" width="110" height="26" as="geometry" />
        </mxCell>
        <mxCell id="97yGeqRNfgGxLknGt3WS-31" value="https://www.coolname" style="strokeWidth=1;shadow=0;dashed=0;align=center;html=1;shape=mxgraph.mockup.containers.anchor;rSize=0;fontSize=17;fontColor=#666666;align=left;" parent="97yGeqRNfgGxLknGt3WS-29" vertex="1">
          <mxGeometry x="130" y="60" width="250" height="26" as="geometry" />
        </mxCell>
        <mxCell id="97yGeqRNfgGxLknGt3WS-32" value="Повернутися в головне меню" style="strokeWidth=1;shadow=0;dashed=0;align=center;html=1;shape=mxgraph.mockup.buttons.button;mainText=;buttonStyle=round;fontSize=17;fontStyle=1;whiteSpace=wrap;fillColor=#bac8d3;strokeColor=#23445d;" parent="97yGeqRNfgGxLknGt3WS-29" vertex="1">
          <mxGeometry x="410" y="320" width="190" height="80" as="geometry" />
        </mxCell>
        <mxCell id="97yGeqRNfgGxLknGt3WS-34" value="&lt;span style=&quot;font-size: 39px;&quot;&gt;КІНЕЦЬ&lt;/span&gt;" style="text;html=1;align=center;verticalAlign=middle;whiteSpace=wrap;rounded=0;" parent="97yGeqRNfgGxLknGt3WS-29" vertex="1">
          <mxGeometry x="280" y="190" width="450" height="70" as="geometry" />
        </mxCell>
        <mxCell id="97yGeqRNfgGxLknGt3WS-59" value="" style="verticalLabelPosition=bottom;shadow=0;dashed=0;align=center;html=1;verticalAlign=top;strokeWidth=1;shape=mxgraph.mockup.misc.help_icon;" parent="97yGeqRNfgGxLknGt3WS-29" vertex="1">
          <mxGeometry x="965" y="120" width="32" height="32" as="geometry" />
        </mxCell>
        <mxCell id="97yGeqRNfgGxLknGt3WS-60" value="" style="strokeColor=#999999;verticalLabelPosition=bottom;shadow=0;dashed=0;verticalAlign=top;strokeWidth=2;html=1;shape=mxgraph.mockup.misc.volumeIcon;" parent="97yGeqRNfgGxLknGt3WS-29" vertex="1">
          <mxGeometry x="930" y="123.5" width="25" height="25" as="geometry" />
        </mxCell>
        <mxCell id="97yGeqRNfgGxLknGt3WS-35" value="" style="strokeWidth=1;shadow=0;dashed=0;align=center;html=1;shape=mxgraph.mockup.containers.browserWindow;rSize=0;strokeColor=#666666;strokeColor2=#008cff;strokeColor3=#c4c4c4;mainText=,;recursiveResize=0;" parent="1" vertex="1">
          <mxGeometry x="-260" y="1870" width="1010" height="580" as="geometry" />
        </mxCell>
        <mxCell id="97yGeqRNfgGxLknGt3WS-36" value="Page 1" style="strokeWidth=1;shadow=0;dashed=0;align=center;html=1;shape=mxgraph.mockup.containers.anchor;fontSize=17;fontColor=#666666;align=left;whiteSpace=wrap;" parent="97yGeqRNfgGxLknGt3WS-35" vertex="1">
          <mxGeometry x="60" y="12" width="110" height="26" as="geometry" />
        </mxCell>
        <mxCell id="97yGeqRNfgGxLknGt3WS-37" value="https://www.coolname" style="strokeWidth=1;shadow=0;dashed=0;align=center;html=1;shape=mxgraph.mockup.containers.anchor;rSize=0;fontSize=17;fontColor=#666666;align=left;" parent="97yGeqRNfgGxLknGt3WS-35" vertex="1">
          <mxGeometry x="130" y="60" width="250" height="26" as="geometry" />
        </mxCell>
        <mxCell id="97yGeqRNfgGxLknGt3WS-38" value="Наступний рівень" style="strokeWidth=1;shadow=0;dashed=0;align=center;html=1;shape=mxgraph.mockup.buttons.button;mainText=;buttonStyle=round;fontSize=17;fontStyle=1;whiteSpace=wrap;fillColor=#bac8d3;strokeColor=#23445d;" parent="97yGeqRNfgGxLknGt3WS-35" vertex="1">
          <mxGeometry x="410" y="310" width="190" height="60" as="geometry" />
        </mxCell>
        <mxCell id="97yGeqRNfgGxLknGt3WS-39" value="&lt;span style=&quot;font-size: 39px;&quot;&gt;Перший рівень пройдено!&lt;/span&gt;" style="text;html=1;align=center;verticalAlign=middle;whiteSpace=wrap;rounded=0;" parent="97yGeqRNfgGxLknGt3WS-35" vertex="1">
          <mxGeometry x="280" y="190" width="450" height="90" as="geometry" />
        </mxCell>
        <mxCell id="97yGeqRNfgGxLknGt3WS-40" value="Головне меню" style="strokeWidth=1;shadow=0;dashed=0;align=center;html=1;shape=mxgraph.mockup.buttons.button;mainText=;buttonStyle=round;fontSize=17;fontStyle=1;whiteSpace=wrap;fillColor=#bac8d3;strokeColor=#23445d;" parent="97yGeqRNfgGxLknGt3WS-35" vertex="1">
          <mxGeometry x="410" y="380" width="190" height="40" as="geometry" />
        </mxCell>
        <mxCell id="97yGeqRNfgGxLknGt3WS-61" value="" style="verticalLabelPosition=bottom;shadow=0;dashed=0;align=center;html=1;verticalAlign=top;strokeWidth=1;shape=mxgraph.mockup.misc.help_icon;" parent="97yGeqRNfgGxLknGt3WS-35" vertex="1">
          <mxGeometry x="965" y="120" width="32" height="32" as="geometry" />
        </mxCell>
        <mxCell id="97yGeqRNfgGxLknGt3WS-62" value="" style="strokeColor=#999999;verticalLabelPosition=bottom;shadow=0;dashed=0;verticalAlign=top;strokeWidth=2;html=1;shape=mxgraph.mockup.misc.volumeIcon;" parent="97yGeqRNfgGxLknGt3WS-35" vertex="1">
          <mxGeometry x="930" y="123.5" width="25" height="25" as="geometry" />
        </mxCell>
        <mxCell id="DN3tmchyXIPDvixoA0uq-5" value="&lt;font style=&quot;font-size: 17px;&quot;&gt;Не впевнені, що буде використовуватися&lt;/font&gt;" style="shape=callout;whiteSpace=wrap;html=1;perimeter=calloutPerimeter;" parent="97yGeqRNfgGxLknGt3WS-35" vertex="1">
          <mxGeometry x="690" y="195" width="217.5" height="145" as="geometry" />
        </mxCell>
        <mxCell id="97yGeqRNfgGxLknGt3WS-42" value="" style="strokeWidth=1;shadow=0;dashed=0;align=center;html=1;shape=mxgraph.mockup.containers.browserWindow;rSize=0;strokeColor=#666666;strokeColor2=#008cff;strokeColor3=#c4c4c4;mainText=,;recursiveResize=0;" parent="1" vertex="1">
          <mxGeometry x="-260" y="2480" width="1010" height="580" as="geometry" />
        </mxCell>
        <mxCell id="97yGeqRNfgGxLknGt3WS-43" value="Page 1" style="strokeWidth=1;shadow=0;dashed=0;align=center;html=1;shape=mxgraph.mockup.containers.anchor;fontSize=17;fontColor=#666666;align=left;whiteSpace=wrap;" parent="97yGeqRNfgGxLknGt3WS-42" vertex="1">
          <mxGeometry x="60" y="12" width="110" height="26" as="geometry" />
        </mxCell>
        <mxCell id="97yGeqRNfgGxLknGt3WS-44" value="https://www.coolname" style="strokeWidth=1;shadow=0;dashed=0;align=center;html=1;shape=mxgraph.mockup.containers.anchor;rSize=0;fontSize=17;fontColor=#666666;align=left;" parent="97yGeqRNfgGxLknGt3WS-42" vertex="1">
          <mxGeometry x="130" y="60" width="250" height="26" as="geometry" />
        </mxCell>
        <mxCell id="97yGeqRNfgGxLknGt3WS-45" value="Спробувати ще раз" style="strokeWidth=1;shadow=0;dashed=0;align=center;html=1;shape=mxgraph.mockup.buttons.button;mainText=;buttonStyle=round;fontSize=17;fontStyle=1;whiteSpace=wrap;fillColor=#bac8d3;strokeColor=#23445d;" parent="97yGeqRNfgGxLknGt3WS-42" vertex="1">
          <mxGeometry x="410" y="310" width="190" height="60" as="geometry" />
        </mxCell>
        <mxCell id="97yGeqRNfgGxLknGt3WS-46" value="&lt;span style=&quot;font-size: 39px;&quot;&gt;GAME OVER&lt;/span&gt;" style="text;html=1;align=center;verticalAlign=middle;whiteSpace=wrap;rounded=0;" parent="97yGeqRNfgGxLknGt3WS-42" vertex="1">
          <mxGeometry x="280" y="190" width="450" height="90" as="geometry" />
        </mxCell>
        <mxCell id="97yGeqRNfgGxLknGt3WS-47" value="Головне меню" style="strokeWidth=1;shadow=0;dashed=0;align=center;html=1;shape=mxgraph.mockup.buttons.button;mainText=;buttonStyle=round;fontSize=17;fontStyle=1;whiteSpace=wrap;fillColor=#bac8d3;strokeColor=#23445d;" parent="97yGeqRNfgGxLknGt3WS-42" vertex="1">
          <mxGeometry x="410" y="380" width="190" height="40" as="geometry" />
        </mxCell>
        <mxCell id="97yGeqRNfgGxLknGt3WS-63" value="" style="verticalLabelPosition=bottom;shadow=0;dashed=0;align=center;html=1;verticalAlign=top;strokeWidth=1;shape=mxgraph.mockup.misc.help_icon;" parent="97yGeqRNfgGxLknGt3WS-42" vertex="1">
          <mxGeometry x="965" y="120" width="32" height="32" as="geometry" />
        </mxCell>
        <mxCell id="97yGeqRNfgGxLknGt3WS-64" value="" style="strokeColor=#999999;verticalLabelPosition=bottom;shadow=0;dashed=0;verticalAlign=top;strokeWidth=2;html=1;shape=mxgraph.mockup.misc.volumeIcon;" parent="97yGeqRNfgGxLknGt3WS-42" vertex="1">
          <mxGeometry x="930" y="123.5" width="25" height="25" as="geometry" />
        </mxCell>
      </root>
    </mxGraphModel>
  </diagram>
</mxfile>
